<?xml version="1.0" standalone="no"?>
<!DOCTYPE svg PUBLIC "-//W3C//DTD SVG 20010904//EN"
 "http://www.w3.org/TR/2001/REC-SVG-20010904/DTD/svg10.dtd">
<svg version="1.0" xmlns="http://www.w3.org/2000/svg"
 width="800.000000pt" height="800.000000pt" viewBox="0 0 800.000000 800.000000"
 preserveAspectRatio="xMidYMid meet">
<metadata>
Created by potrace 1.11, written by Peter Selinger 2001-2013
</metadata>
<g transform="translate(0.000000,800.000000) scale(0.100000,-0.100000)"
fill="#000000" stroke="none">
<path d="M1669 7746 c-2 -3 -18 -7 -34 -10 -77 -14 -197 -87 -259 -158 -43
-49 -98 -148 -113 -205 -4 -15 -9 -1526 -10 -3358 -3 -3657 -8 -3373 57 -3501
64 -125 201 -228 339 -254 63 -12 4688 -10 4731 2 87 25 211 109 273 187 24
30 73 136 86 186 8 28 11 1070 11 3365 0 2828 -2 3332 -14 3371 -56 185 -190
317 -369 365 -43 11 -435 14 -2373 14 -1276 0 -2323 -2 -2325 -4z"/>
</g>
</svg>
